<?xml version="1.0" standalone="no"?><!DOCTYPE svg PUBLIC "-//W3C//DTD SVG 1.1//EN" "http://www.w3.org/Graphics/SVG/1.1/DTD/svg11.dtd"><svg class="icon" height="512" viewBox="0 0 1024 1024" version="1.1" xmlns="http://www.w3.org/2000/svg"><path d="M510.788408 125.165447c8.527194 0 17.05541 0 25.582604 0 122.663469 6.726178 211.316401 54.621929 276.612416 119.918967 65.291921 65.291921 113.194836 153.948947 119.918967 276.612416 0 8.527194 0 17.05541 0 25.582604-6.726178 122.664492-54.622952 211.316401-119.918967 276.612416-65.291921 65.291921-153.948947 113.194836-276.612416 119.918967-8.527194 0-17.05541 0-25.582604 0-122.664492-6.726178-211.315378-54.622952-276.612416-119.918967-65.294991-65.294991-113.197905-153.94383-119.918967-276.612416 0-8.527194 0-17.05541 0-25.582604 6.721062-122.667562 54.623976-211.317424 119.918967-276.612416C299.472007 179.7884 388.123916 131.892649 510.788408 125.165447zM413.254219 406.57409c23.297566 33.19087 44.922029 67.212663 69.55296 99.93179 6.567566 8.723668 22.384778 25.983739 22.384778 34.37688 0 9.019403-14.912611 24.714842-20.786377 32.777455-50.483687 69.300204-97.663125 138.281137-145.501571 207.858656-3.724827 5.417372-9.574034 10.15527-8.794276 15.189927 10.659759 0 21.318495 0 31.978255 0 40.430747-57.899572 81.106064-116.588112 120.718168-174.282 13.238486-19.28212 26.248775-39.064636 41.571731-56.761658 44.992637 64.165264 95.280873 136.047264 141.503522 202.262206 5.938234 8.506727 14.13797 26.603861 20.786377 28.780429 9.516729 3.115961 23.4879-2.360763 31.978255 0-48.933381-72.532822-103.231946-150.173978-155.095047-223.048583-5.421465-7.617476-21.649023-24.186817-21.585578-32.777455 0.029676-3.95814 6.43863-12.008474 10.392677-17.588552 57.860687-81.638182 114.763561-163.352089 171.883375-243.833937 1.39988-1.973954 5.584171-3.85581 3.997026-7.194852-10.659759 0-21.318495 0-31.978255 0-53.669233 74.666411-108.085478 153.291985-161.490698 228.645033-2.731199 3.854787-9.163689 15.292257-11.192901 15.189927-1.496071-0.075725-8.009402-11.785394-10.392677-15.189927-54.037622-77.197042-108.271719-154.246728-162.289899-228.645033-10.925818 0-21.851637 0-32.777455 0C348.165935 316.669657 380.080745 359.313811 413.254219 406.57409z" /></svg>